HIERARCHY
ROOT Hip
{
	OFFSET -1.266827 -0.020197 0.004786
	CHANNELS 6 Xposition Yposition Zposition Xrotation Yrotation Zrotation
	JOINT LowerSpine
	{
		OFFSET 0.035781 0.150496 0.259874
		CHANNELS 6 Xposition Yposition Zposition Xrotation Yrotation Zrotation
		JOINT MiddleSpine
		{
			OFFSET -0.002580 -0.010850 0.237154
			CHANNELS 3 Xrotation Yrotation Zrotation
			JOINT Chest
			{
				OFFSET 0.013598 0.057192 0.293449
				CHANNELS 3 Xrotation Yrotation Zrotation
				JOINT Neck
				{
					OFFSET 0.002863 0.012040 0.661279
					CHANNELS 6 Xposition Yposition Zposition Xrotation Yrotation Zrotation
					JOINT Head
					{
						OFFSET -0.023497 -0.098818 0.373433
						CHANNELS 3 Xrotation Yrotation Zrotation
						End Site
						{
							OFFSET -0.000370 -0.001558 0.053628
						}
					}
				}
				JOINT LClavicle
				{
					OFFSET 0.012940 -0.205338 0.638168
					CHANNELS 6 Xposition Yposition Zposition Xrotation Yrotation Zrotation
					JOINT LShoulder
					{
						OFFSET 0.375768 0.062903 0.091535
						CHANNELS 3 Xrotation Yrotation Zrotation
						JOINT LForearm
						{
							OFFSET 0.807693 -0.184653 -0.002937
							CHANNELS 3 Xrotation Yrotation Zrotation
							JOINT LHand
							{
								OFFSET 0.673358 -0.155837 0.002005
								CHANNELS 3 Xrotation Yrotation Zrotation
								JOINT LFinger1
								{
									OFFSET 0.243394 -0.134341 0.023428
									CHANNELS 6 Xposition Yposition Zposition Xrotation Yrotation Zrotation
									JOINT LFinger11
									{
										OFFSET 0.093394 -0.040351 -0.024433
										CHANNELS 3 Xrotation Yrotation Zrotation
										JOINT LFinger12
										{
											OFFSET 0.063757 -0.027552 -0.016682
											CHANNELS 3 Xrotation Yrotation Zrotation
											End Site
											{
												OFFSET 0.047517 -0.019768 -0.015164
											}
										}
									}
								}
								JOINT LFinger2
								{
									OFFSET 0.262995 -0.069185 0.027054
									CHANNELS 6 Xposition Yposition Zposition Xrotation Yrotation Zrotation
									JOINT LFinger21
									{
										OFFSET 0.120695 -0.027945 0.000344
										CHANNELS 3 Xrotation Yrotation Zrotation
										JOINT LFinger22
										{
											OFFSET 0.066904 -0.015478 0.000210
											CHANNELS 3 Xrotation Yrotation Zrotation
											End Site
											{
												OFFSET 0.052051 -0.012450 -0.003781
											}
										}
									}
								}
								JOINT LFinger3
								{
									OFFSET 0.264762 -0.000293 0.018055
									CHANNELS 6 Xposition Yposition Zposition Xrotation Yrotation Zrotation
									JOINT LFinger31
									{
										OFFSET 0.110994 -0.019154 -0.005693
										CHANNELS 3 Xrotation Yrotation Zrotation
										JOINT LFinger32
										{
											OFFSET 0.063252 -0.010903 -0.003223
											CHANNELS 3 Xrotation Yrotation Zrotation
											End Site
											{
												OFFSET 0.052332 -0.009858 -0.006540
											}
										}
									}
								}
								JOINT LFinger4
								{
									OFFSET 0.256955 0.047111 -0.018169
									CHANNELS 6 Xposition Yposition Zposition Xrotation Yrotation Zrotation
									JOINT LFinger41
									{
										OFFSET 0.071686 0.002576 -0.014420
										CHANNELS 3 Xrotation Yrotation Zrotation
										JOINT LFinger42
										{
											OFFSET 0.052570 0.001897 -0.010559
											CHANNELS 3 Xrotation Yrotation Zrotation
											End Site
											{
												OFFSET 0.051825 -0.000408 -0.013878
											}
										}
									}
								}
								JOINT LFinger0
								{
									OFFSET 0.044192 -0.053686 -0.041941
									CHANNELS 6 Xposition Yposition Zposition Xrotation Yrotation Zrotation
									JOINT LFinger01
									{
										OFFSET 0.082379 -0.099538 -0.033880
										CHANNELS 3 Xrotation Yrotation Zrotation
										JOINT LFinger02
										{
											OFFSET 0.054770 -0.063330 -0.024309
											CHANNELS 3 Xrotation Yrotation Zrotation
											End Site
											{
												OFFSET 0.034685 -0.038218 -0.014659
											}
										}
									}
								}
							}
						}
					}
				}
				JOINT RClavicle
				{
					OFFSET -0.103971 -0.177541 0.638168
					CHANNELS 6 Xposition Yposition Zposition Xrotation Yrotation Zrotation
					JOINT RShoulder
					{
						OFFSET -0.307302 0.225331 0.091552
						CHANNELS 3 Xrotation Yrotation Zrotation
						JOINT RForearm
						{
							OFFSET -0.804372 0.198622 -0.002937
							CHANNELS 3 Xrotation Yrotation Zrotation
							JOINT RHand
							{
								OFFSET -0.671442 0.163895 0.002005
								CHANNELS 3 Xrotation Yrotation Zrotation
								JOINT RFinger1
								{
									OFFSET -0.277815 -0.010421 0.023430
									CHANNELS 6 Xposition Yposition Zposition Xrotation Yrotation Zrotation
									JOINT RFinger11
									{
										OFFSET -0.101562 0.006001 -0.024433
										CHANNELS 3 Xrotation Yrotation Zrotation
										JOINT RFinger12
										{
											OFFSET -0.069335 0.004092 -0.016688
											CHANNELS 3 Xrotation Yrotation Zrotation
											End Site
											{
												OFFSET -0.051329 0.003733 -0.015164
											}
										}
									}
								}
								JOINT RFinger2
								{
									OFFSET -0.265992 0.056581 0.027054
									CHANNELS 6 Xposition Yposition Zposition Xrotation Yrotation Zrotation
									JOINT RFinger21
									{
										OFFSET -0.120357 0.029367 0.000347
										CHANNELS 3 Xrotation Yrotation Zrotation
										JOINT RFinger22
										{
											OFFSET -0.066710 0.016292 0.000210
											CHANNELS 3 Xrotation Yrotation Zrotation
											End Site
											{
												OFFSET -0.052084 0.012308 -0.003781
											}
										}
									}
								}
								JOINT RFinger3
								{
									OFFSET -0.236564 0.118899 0.018057
									CHANNELS 6 Xposition Yposition Zposition Xrotation Yrotation Zrotation
									JOINT RFinger31
									{
										OFFSET -0.107738 0.032850 -0.005693
										CHANNELS 3 Xrotation Yrotation Zrotation
										JOINT RFinger32
										{
											OFFSET -0.061393 0.018732 -0.003223
											CHANNELS 3 Xrotation Yrotation Zrotation
											End Site
											{
												OFFSET -0.051169 0.014750 -0.006540
											}
										}
									}
								}
								JOINT RFinger4
								{
									OFFSET -0.208256 0.157717 -0.018169
									CHANNELS 6 Xposition Yposition Zposition Xrotation Yrotation Zrotation
									JOINT RFinger41
									{
										OFFSET -0.062856 0.034564 -0.014420
										CHANNELS 3 Xrotation Yrotation Zrotation
										JOINT RFinger42
										{
											OFFSET -0.046090 0.025354 -0.010556
											CHANNELS 3 Xrotation Yrotation Zrotation
											End Site
											{
												OFFSET -0.046463 0.022960 -0.013878
											}
										}
									}
								}
								JOINT RFinger0
								{
									OFFSET -0.063625 -0.028049 -0.041938
									CHANNELS 6 Xposition Yposition Zposition Xrotation Yrotation Zrotation
									JOINT RFinger01
									{
										OFFSET -0.118364 -0.051813 -0.033886
										CHANNELS 3 Xrotation Yrotation Zrotation
										JOINT RFinger02
										{
											OFFSET -0.077413 -0.031903 -0.024307
											CHANNELS 3 Xrotation Yrotation Zrotation
											End Site
											{
												OFFSET -0.048174 -0.018518 -0.014659
											}
										}
									}
								}
							}
						}
					}
				}
			}
		}
	}
	JOINT RThigh
	{
		OFFSET -0.293098 0.095593 0.117468
		CHANNELS 6 Xposition Yposition Zposition Xrotation Yrotation Zrotation
		JOINT RShin
		{
			OFFSET -0.021643 0.005146 -1.209168
			CHANNELS 3 Xrotation Yrotation Zrotation
			JOINT RFoot
			{
				OFFSET 0.000000 0.000000 -1.187332
				CHANNELS 3 Xrotation Yrotation Zrotation
				JOINT RToe
				{
					OFFSET -0.063121 -0.265488 -0.130497
					CHANNELS 3 Xrotation Yrotation Zrotation
					End Site
					{
						OFFSET -0.012410 -0.052197 0.000000
					}
				}
			}
		}
	}
	JOINT LThigh
	{
		OFFSET 0.304756 -0.046549 0.117477
		CHANNELS 6 Xposition Yposition Zposition Xrotation Yrotation Zrotation
		JOINT LShin
		{
			OFFSET 0.021643 -0.005145 -1.209177
			CHANNELS 3 Xrotation Yrotation Zrotation
			JOINT LFoot
			{
				OFFSET -0.000000 0.000000 -1.187332
				CHANNELS 3 Xrotation Yrotation Zrotation
				JOINT LToe
				{
					OFFSET -0.063121 -0.265490 -0.130499
					CHANNELS 3 Xrotation Yrotation Zrotation
					End Site
					{
						OFFSET -0.012410 -0.052197 0.000000
					}
				}
			}
		}
	}
}
MOTION
Frames: 4
Frame Time: 0.041667
-1.883861 -0.188165 2.192714 -11.835097 -16.030517 -137.468841 0.035781 0.150497 0.259873 -0.000002 -0.000001 -0.000001 -5.566132 -1.810250 -3.911294 -18.989961 -4.465052 -13.611726 0.002862 0.012040 0.661279 0.000007 0.000007 -0.000005 -0.000001 0.000001 -0.000001 0.012940 -0.205337 0.638167 1.070361 4.492476 -0.041988 34.690422 -4.851326 -27.087724 0.045262 -0.163769 -133.391819 -0.000015 -0.000010 0.000016 0.243394 -0.134341 0.023428 -0.000000 -0.000008 0.000008 0.000011 0.000002 -0.000006 -0.000005 -0.000010 0.000015 0.262995 -0.069185 0.027053 0.000006 -0.000001 0.000001 0.000007 0.000002 -0.000005 -0.000003 -0.000002 0.000016 0.264763 -0.000293 0.018055 0.000005 0.000002 -0.000002 0.000010 -0.000003 -0.000009 -0.000002 -0.000005 0.000003 0.256955 0.047111 -0.018169 0.000002 -0.000009 -0.000001 -0.000002 -0.000004 -0.000009 -0.000005 0.000006 0.000004 0.044192 -0.053687 -0.041941 0.000016 0.000000 0.000005 -0.000011 -0.000014 -0.000000 -0.000003 0.000008 -0.000014 -0.103972 -0.177541 0.638168 -0.051049 -0.214720 -0.000097 12.515940 -6.441045 -9.377523 0.000009 -0.000006 0.226503 0.000006 0.000003 0.000003 -0.277815 -0.010422 0.023431 0.000031 0.000004 -0.000005 0.000011 -0.000016 -0.000008 -0.000026 -0.000006 0.000004 -0.265992 0.056581 0.027054 0.000030 0.000006 0.000002 0.000002 0.000009 0.000002 0.000027 -0.000013 0.000003 -0.236564 0.118899 0.018057 0.000029 0.000003 0.000000 -0.000022 -0.000003 0.000007 -0.000081 0.000001 -0.000009 -0.208256 0.157717 -0.018169 0.000034 0.000008 0.000001 0.000035 0.000001 0.000007 -0.000023 -0.000005 -0.000010 -0.063625 -0.028049 -0.041938 0.000060 0.000017 -0.000002 0.000026 0.000000 -0.000010 0.000035 -0.000012 0.000007 -0.278732 0.065501 0.113763 -6.862444 12.603007 2.281127 16.574658 -3.880009 0.565372 0.383280 -0.170621 0.163509 -16.404258 3.841351 0.553892 0.297413 -0.005906 0.231797 -15.565115 -4.900832 4.623022 -0.227186 0.054015 0.000098 -2.280689 -0.395806 1.830888 0.000006 0.000004 0.000003 
-1.883861 -0.188165 2.192714 -11.835097 -16.030517 -137.468841 0.035781 0.150497 0.259873 -0.000002 -0.000001 -0.000001 -5.566132 -1.810250 -3.911294 -18.989961 -4.465052 -13.611726 0.002862 0.012040 0.661279 0.000007 0.000007 -0.000005 -0.000001 0.000001 -0.000001 0.012940 -0.205337 0.638167 1.070361 4.492476 -0.041988 34.690422 -4.851326 -27.087724 0.045262 -0.163769 -133.391819 -0.000015 -0.000010 0.000016 0.243394 -0.134341 0.023428 -0.000000 -0.000008 0.000008 0.000011 0.000002 -0.000006 -0.000005 -0.000010 0.000015 0.262995 -0.069185 0.027053 0.000006 -0.000001 0.000001 0.000007 0.000002 -0.000005 -0.000003 -0.000002 0.000016 0.264763 -0.000293 0.018055 0.000005 0.000002 -0.000002 0.000010 -0.000003 -0.000009 -0.000002 -0.000005 0.000003 0.256955 0.047111 -0.018169 0.000002 -0.000009 -0.000001 -0.000002 -0.000004 -0.000009 -0.000005 0.000006 0.000004 0.044192 -0.053687 -0.041941 0.000016 0.000000 0.000005 -0.000011 -0.000014 -0.000000 -0.000003 0.000008 -0.000014 -0.103972 -0.177541 0.638168 -0.051049 -0.214720 -0.000097 12.515940 -6.441045 -9.377523 0.000009 -0.000006 0.226503 0.000006 0.000003 0.000003 -0.277815 -0.010422 0.023431 0.000031 0.000004 -0.000005 0.000011 -0.000016 -0.000008 -0.000026 -0.000006 0.000004 -0.265992 0.056581 0.027054 0.000030 0.000006 0.000002 0.000002 0.000009 0.000002 0.000027 -0.000013 0.000003 -0.236564 0.118899 0.018057 0.000029 0.000003 0.000000 -0.000022 -0.000003 0.000007 -0.000081 0.000001 -0.000009 -0.208256 0.157717 -0.018169 0.000034 0.000008 0.000001 0.000035 0.000001 0.000007 -0.000023 -0.000005 -0.000010 -0.063625 -0.028049 -0.041938 0.000060 0.000017 -0.000002 0.000026 0.000000 -0.000010 0.000035 -0.000012 0.000007 -0.278732 0.065501 0.113763 -6.862444 12.603007 2.281127 16.574658 -3.880009 0.565372 0.383280 -0.170621 0.163509 -16.404258 3.841351 0.553892 0.297413 -0.005906 0.231797 -15.565115 -4.900832 4.623022 -0.227186 0.054015 0.000098 -2.280689 -0.395806 1.830888 0.000006 0.000004 0.000003 
-1.887176 -0.191374 2.194708 -11.770984 -16.092192 -136.676621 0.035781 0.150497 0.259874 -0.000002 0.000001 -0.000005 -5.578305 -1.733848 -4.198129 -19.027206 -4.089376 -14.543107 0.002862 0.012040 0.661279 0.000007 0.000007 -0.000006 0.000001 -0.000001 0.000001 0.012940 -0.205337 0.638168 1.070614 4.485593 -0.038995 34.820076 -4.600745 -26.386459 0.066472 -0.247590 -134.700059 -0.000015 -0.000010 0.000019 0.243394 -0.134341 0.023428 -0.000003 -0.000014 0.000007 0.000009 0.000002 -0.000011 -0.000006 -0.000012 0.000015 0.262995 -0.069185 0.027054 -0.000001 -0.000002 -0.000002 0.000008 -0.000001 -0.000006 -0.000003 0.000001 0.000014 0.264762 -0.000293 0.018056 0.000006 -0.000005 0.000001 0.000006 -0.000001 -0.000005 -0.000002 -0.000007 0.000008 0.256954 0.047111 -0.018169 0.000002 -0.000010 -0.000003 -0.000001 -0.000002 -0.000003 -0.000005 0.000004 0.000005 0.044191 -0.053687 -0.041940 0.000019 -0.000002 0.000007 -0.000015 -0.000014 0.000004 -0.000004 0.000007 -0.000014 -0.103971 -0.177541 0.638168 -0.069759 -0.293394 -0.000177 10.333544 -5.614880 -9.143473 -0.000264 -0.000309 0.168830 0.000006 0.000004 0.000001 -0.277815 -0.010422 0.023430 0.000031 0.000004 -0.000003 0.000009 -0.000016 -0.000004 -0.000026 -0.000004 0.000001 -0.265993 0.056581 0.027054 0.000029 0.000006 0.000001 0.000002 0.000008 0.000002 0.000028 -0.000011 0.000002 -0.236564 0.118899 0.018057 0.000028 0.000001 0.000000 -0.000020 -0.000002 0.000007 -0.000080 0.000000 -0.000009 -0.208256 0.157717 -0.018169 0.000036 0.000007 -0.000001 0.000032 0.000003 0.000011 -0.000024 -0.000003 -0.000005 -0.063626 -0.028049 -0.041938 0.000055 0.000016 -0.000000 0.000025 -0.000001 -0.000008 0.000031 -0.000011 0.000005 -0.278648 0.066103 0.114522 -6.503801 12.486736 2.234395 16.116350 -3.775912 0.534778 0.325228 -0.216221 0.285997 -16.342095 3.827235 0.549732 0.297447 -0.005659 0.231886 -15.821933 -4.502459 5.219793 -0.066918 0.015912 0.000006 -2.338883 0.003641 1.080474 0.000004 0.000003 -0.000004 
-1.888542 -0.192431 2.195618 -11.750143 -16.095693 -136.489951 0.035781 0.150496 0.259873 -0.000003 -0.000002 -0.000004 -5.570573 -1.709518 -4.283936 -19.021185 -3.978804 -14.805798 0.002862 0.012040 0.661280 0.000009 0.000007 -0.000007 0.000004 -0.000004 0.000000 0.012940 -0.205337 0.638168 1.070685 4.485941 -0.039017 34.890672 -4.589103 -26.163023 0.077974 -0.286157 -135.096566 -0.000012 -0.000009 0.000017 0.243394 -0.134340 0.023428 -0.000005 -0.000011 0.000006 0.000011 0.000001 -0.000006 -0.000009 -0.000011 0.000017 0.262995 -0.069185 0.027053 -0.000003 0.000001 -0.000004 0.000007 0.000002 -0.000007 -0.000003 -0.000000 0.000013 0.264762 -0.000293 0.018055 0.000001 0.000000 -0.000003 0.000005 -0.000002 -0.000007 0.000003 -0.000006 0.000003 0.256954 0.047111 -0.018169 -0.000002 -0.000008 -0.000006 -0.000000 -0.000003 -0.000004 -0.000006 0.000000 0.000001 0.044192 -0.053686 -0.041941 0.000009 0.000002 -0.000000 -0.000010 -0.000011 -0.000003 -0.000007 0.000009 -0.000015 -0.103972 -0.177541 0.638168 -0.076488 -0.321713 -0.000211 9.767923 -5.421544 -9.002632 -0.000821 -0.000890 0.059358 0.000006 0.000003 0.000001 -0.277815 -0.010422 0.023430 0.000032 0.000004 -0.000005 0.000010 -0.000017 -0.000005 -0.000027 -0.000001 0.000001 -0.265993 0.056581 0.027054 0.000028 0.000005 0.000001 0.000001 0.000009 0.000006 0.000028 -0.000011 0.000001 -0.236564 0.118899 0.018057 0.000029 -0.000000 0.000000 -0.000022 -0.000003 0.000008 -0.000081 0.000002 -0.000009 -0.208257 0.157717 -0.018169 0.000035 0.000007 -0.000003 0.000034 0.000002 0.000009 -0.000025 -0.000004 -0.000005 -0.063626 -0.028049 -0.041938 0.000053 0.000016 -0.000002 0.000027 -0.000001 -0.000009 0.000032 -0.000014 0.000006 -0.278511 0.067108 0.115791 -6.411842 12.447814 2.230294 15.969529 -3.742509 0.525150 0.297300 -0.162434 0.188328 -16.244794 3.805130 0.543254 0.297504 -0.005244 0.232037 -15.932709 -4.345561 5.391018 0.063389 -0.015070 0.000003 -2.426607 0.083344 0.965164 0.000007 0.000003 -0.000007 
